<svg width="86" height="17" viewBox="0 0 86 17" xmlns="http://www.w3.org/2000/svg">
    <path
        d="M1.81031 8.35808V6.49506H0V5.28488H1.81031V3.43226H3.16815V5.28488H4.95739V6.49506H3.16815V8.35808H1.81031ZM5.82019 2.31661H10.7039V2.69555L7.5254 9.2632H5.97801L8.79887 3.60074H5.82019V2.31661ZM19.408 4.68491C19.408 5.07079 19.331 5.41461 19.1767 5.71628C19.0362 6.01085 18.7941 6.39351 18.4504 6.8635L16.7241 9.2632H15.0402L16.6507 7.03181H16.5979C16.0086 7.04603 15.4753 6.81958 14.9982 6.35298C14.5212 5.88637 14.2895 5.32685 14.3034 4.67425C14.2895 3.98653 14.5402 3.39714 15.056 2.90608C15.5717 2.41477 16.1698 2.17639 16.8504 2.19027C17.5453 2.19027 18.1452 2.42899 18.6504 2.90608C19.1556 3.38318 19.408 3.97612 19.408 4.68491ZM17.6663 5.50574C17.8871 5.28124 17.9977 5.00428 17.9977 4.67434C17.9977 4.34457 17.8871 4.06574 17.6663 3.83751C17.4452 3.60963 17.1734 3.49564 16.8504 3.49564C16.5347 3.49564 16.2645 3.60777 16.04 3.83227C15.8155 4.05685 15.7031 4.33754 15.7031 4.67434C15.7031 5.00428 15.8155 5.28124 16.04 5.50574C16.2645 5.73025 16.5347 5.84262 16.8504 5.84262C17.1734 5.84262 17.4452 5.73025 17.6663 5.50574ZM25.3232 6.90555C25.3232 7.60749 25.0708 8.19663 24.5656 8.67372C24.0604 9.15082 23.4604 9.38954 22.7656 9.38954C22.085 9.40341 21.4869 9.16504 20.9711 8.67372C20.4554 8.18275 20.2047 7.5898 20.2186 6.89506C20.2186 6.6357 20.2571 6.3831 20.3343 6.13728C20.4467 5.80065 20.7237 5.32694 21.1659 4.71648L22.9023 2.31669H24.5761L22.9762 4.54808H23.0182C23.6148 4.53395 24.1515 4.76031 24.6286 5.22692C25.1058 5.69352 25.3374 6.25312 25.3232 6.90564V6.90555ZM23.5815 7.74762C23.8023 7.52312 23.9128 7.24243 23.9128 6.90555C23.9128 6.56893 23.8023 6.29002 23.5815 6.06899C23.3604 5.84787 23.0886 5.73735 22.7656 5.73735C22.4429 5.73735 22.1711 5.84973 21.95 6.07423C21.729 6.29873 21.6184 6.5757 21.6184 6.90555C21.6184 7.23532 21.729 7.51449 21.95 7.74246C22.1711 7.97035 22.4429 8.08459 22.7656 8.08459C23.0886 8.08459 23.3604 7.97221 23.5815 7.74771V7.74762ZM31.2384 6.90555C31.2384 7.60749 30.986 8.19663 30.4808 8.67372C29.9756 9.15082 29.3756 9.38954 28.6808 9.38954C28.0002 9.40341 27.402 9.16504 26.8863 8.67372C26.3706 8.18275 26.1198 7.5898 26.1338 6.89506C26.1338 6.6357 26.1724 6.3831 26.2495 6.13728C26.3618 5.80065 26.639 5.32694 27.0811 4.71648L28.8175 2.31669H30.4913L28.8914 4.54808H28.9334C29.53 4.53395 30.0667 4.76031 30.5438 5.22692C31.0209 5.69352 31.2525 6.25312 31.2384 6.90564V6.90555ZM29.4967 7.74762C29.7175 7.52312 29.828 7.24243 29.828 6.90555C29.828 6.56893 29.7175 6.29002 29.4967 6.06899C29.2756 5.84787 29.0038 5.73735 28.6808 5.73735C28.3581 5.73735 28.0863 5.84973 27.8652 6.07423C27.6441 6.29873 27.5336 6.5757 27.5336 6.90555C27.5336 7.23532 27.6441 7.51449 27.8652 7.74246C28.0863 7.97035 28.3581 8.08459 28.6808 8.08459C29.0038 8.08459 29.2756 7.97221 29.4967 7.74771V7.74762Z" />
    <path fill-rule="evenodd" clip-rule="evenodd"
        d="M34.2402 0H85.8832V12.0391H34.2402V0ZM39.3149 8.05276H41.9039V9.26327L36.7783 9.27377V8.96854L39.2621 6.27401C39.6128 5.88822 39.8638 5.5637 40.0146 5.30061C40.1656 5.03752 40.2409 4.7796 40.2409 4.52709C40.2409 4.22533 40.1533 3.97958 39.9778 3.7902C39.8024 3.60073 39.5674 3.50621 39.2725 3.50621C38.9779 3.50621 38.741 3.60437 38.5622 3.80078C38.3832 3.99719 38.294 4.25308 38.294 4.56897C38.294 4.67441 38.3112 4.84264 38.3464 5.07425H36.9151C36.866 4.89874 36.8414 4.70234 36.8414 4.48469C36.8414 3.86746 37.071 3.33071 37.5309 2.8746C37.9904 2.41857 38.578 2.19026 39.2938 2.19026C39.9884 2.19026 40.5638 2.40266 41.0197 2.82704C41.4759 3.25167 41.7041 3.77962 41.7041 4.41124C41.7041 4.88114 41.5777 5.31974 41.3252 5.72677C41.0584 6.14759 40.6865 6.60742 40.2094 7.10551L39.3148 8.05268L39.3149 8.05276ZM48.3768 6.92679V8.12647H47.4926V9.26327H46.0718V8.12647H42.6195V7.74753L44.7665 2.31677H46.2297L44.3875 6.92679H46.0718V4.97947H47.4926V6.92679H48.3768ZM49.1136 5.73726C49.1136 4.67077 49.3486 3.81474 49.8186 3.16925C50.2889 2.51682 50.973 2.19035 51.871 2.19035C52.7692 2.19035 53.4498 2.51682 53.9129 3.16925C54.3831 3.81474 54.618 4.67077 54.618 5.73726C54.618 6.81094 54.3797 7.68804 53.9022 8.36865C53.4251 9.04926 52.7482 9.38953 51.871 9.38953C50.9868 9.38953 50.3062 9.04926 49.8291 8.36865C49.352 7.68804 49.1136 6.81094 49.1136 5.73726ZM53.1552 5.74784C53.1552 4.25317 52.727 3.50621 51.871 3.50621C51.0081 3.50621 50.5765 4.25308 50.5765 5.74784C50.5765 7.29861 51.0081 8.074 51.871 8.074C52.727 8.074 53.1552 7.29861 53.1552 5.74784ZM61.1648 8.05276H63.7538V9.26327L58.6283 9.27377V8.96854L61.112 6.27401C61.4628 5.88822 61.7139 5.5637 61.8646 5.30061C62.0156 5.03752 62.0909 4.7796 62.0909 4.52709C62.0909 4.22533 62.0033 3.97958 61.8278 3.7902C61.6523 3.60073 61.4174 3.50621 61.1224 3.50621C60.8278 3.50621 60.5911 3.60437 60.4123 3.80078C60.2333 3.99719 60.1439 4.25308 60.1439 4.56897C60.1439 4.67441 60.1612 4.84264 60.1964 5.07425H58.765C58.7159 4.89874 58.6913 4.70234 58.6913 4.48469C58.6913 3.86746 58.921 3.33071 59.3808 2.8746C59.8403 2.41857 60.428 2.19026 61.1437 2.19026C61.8383 2.19026 62.4137 2.40266 62.8698 2.82704C63.3259 3.25167 63.5542 3.77962 63.5542 4.41124C63.5542 4.88114 63.4277 5.31974 63.1752 5.72677C62.9084 6.14759 62.5365 6.60742 62.0594 7.10551L61.1648 8.05268V8.05276ZM69.9951 7.41074C69.9951 8.00732 69.753 8.48636 69.2688 8.84761C68.7846 9.20895 68.1603 9.38953 67.3953 9.38953C66.6237 9.38953 65.9955 9.20895 65.5116 8.84761C65.0273 8.48628 64.7852 8.00732 64.7852 7.41074C64.7852 6.61081 65.2413 6.02853 66.1536 5.66381C65.4516 5.25678 65.1009 4.71292 65.1009 4.03239C65.1009 3.45713 65.3149 3.00779 65.7429 2.68496C66.1781 2.35519 66.7289 2.19026 67.3954 2.19026C68.055 2.19026 68.6025 2.35519 69.0372 2.68496C69.4724 3.01473 69.6898 3.46373 69.6898 4.03239C69.6898 4.72002 69.3427 5.26355 68.648 5.66381C69.5462 6.03547 69.9951 6.618 69.9951 7.41074ZM66.4271 4.09543C66.4271 4.29895 66.5007 4.47081 66.6483 4.61112C66.7956 4.7515 67.0445 4.9023 67.3954 5.06376C67.7465 4.90238 67.9954 4.75159 68.1427 4.61112C68.29 4.47081 68.3637 4.29548 68.3637 4.08494C68.3637 3.86035 68.2728 3.67977 68.0902 3.54285C67.9077 3.40619 67.6761 3.33765 67.3954 3.33765C67.1078 3.33765 66.8743 3.4061 66.6955 3.54285C66.5165 3.67977 66.4271 3.86382 66.4271 4.09543ZM68.5848 7.35819C68.5848 7.09848 68.4918 6.8882 68.3059 6.72657C68.1198 6.5652 67.8164 6.4111 67.3953 6.26335C66.9743 6.41787 66.6708 6.57755 66.485 6.74248C66.299 6.90741 66.206 7.1127 66.206 7.35819C66.206 7.62466 66.3095 7.83706 66.5164 7.99496C66.7235 8.15278 67.0165 8.2319 67.3953 8.2319C67.7743 8.2319 68.0672 8.15278 68.274 7.99496C68.4813 7.83706 68.5848 7.62466 68.5848 7.35819ZM76.447 8.05268H79.036V9.26319L73.9104 9.27368V8.96845L76.3942 6.27393C76.7449 5.88814 76.9961 5.56362 77.1468 5.30053C77.2977 5.03744 77.373 4.77951 77.373 4.527C77.373 4.22524 77.2855 3.9795 77.11 3.79012C76.9346 3.60065 76.6995 3.50613 76.4047 3.50613C76.1102 3.50613 75.8732 3.60429 75.6944 3.80069C75.5153 3.9971 75.426 4.253 75.426 4.56889C75.426 4.67433 75.4433 4.84256 75.4785 5.07416H74.0472C73.9981 4.89866 73.9734 4.70225 73.9734 4.48461C73.9734 3.86738 74.203 3.33062 74.6629 2.87451C75.1225 2.41849 75.7101 2.19018 76.426 2.19018C77.1205 2.19018 77.6958 2.40258 78.1518 2.82695C78.6078 3.25159 78.8362 3.77954 78.8362 4.41115C78.8362 4.88106 78.7097 5.31965 78.4572 5.72668C78.1904 6.14751 77.8185 6.60734 77.3414 7.10542L76.4469 8.05259L76.447 8.05268ZM82.3724 2.31669H82.8461V9.26319H81.4252V4.00057L80.1095 4.42165L79.7726 3.16916L82.3725 2.31669H82.3724Z" />
    <path
        d="M66.2489 16.7261H65.6234L64.5378 15.4063V16.7261H64.0195V14.1937H64.5378V15.3678L65.5046 14.1937H66.1223L65.1515 15.3868L66.2489 16.7261ZM69.6205 16.7261L69.4785 16.396H68.4424L68.3004 16.7261H67.744L68.8762 14.1476H69.0488L70.1767 16.7261H69.6206H69.6205ZM69.2981 15.9701L68.9602 15.1144L68.6228 15.9701H69.2981ZM73.6974 15.9779C73.6974 16.2156 73.6098 16.4076 73.4348 16.5533C73.2596 16.6991 73.0261 16.772 72.7344 16.772C72.5121 16.772 72.313 16.7202 72.1379 16.6167C71.9625 16.5131 71.829 16.3691 71.7368 16.1849L72.0977 15.9241C72.2639 16.1696 72.4747 16.2924 72.7306 16.2924C72.8637 16.2924 72.9729 16.2617 73.0586 16.2002C73.1444 16.1388 73.1873 16.0558 73.1873 15.9509C73.1873 15.8563 73.152 15.7814 73.0817 15.7265C73.0114 15.6715 72.9096 15.6438 72.7767 15.6438H72.4428V15.2181H72.7382C72.8432 15.2181 72.9256 15.1912 72.9857 15.1374C73.0459 15.0835 73.076 15.0132 73.076 14.9262C73.076 14.8343 73.0447 14.7615 72.982 14.7077C72.9192 14.6538 72.8316 14.6269 72.7191 14.6269C72.4967 14.6269 72.3214 14.7371 72.1934 14.957L71.8328 14.6999C71.9198 14.5234 72.0418 14.3873 72.1992 14.2912C72.3565 14.1954 72.5387 14.1475 72.746 14.1475C73.0042 14.1475 73.209 14.2135 73.36 14.345C73.5109 14.4769 73.5865 14.6565 73.5865 14.8841C73.5865 15.0888 73.502 15.2589 73.3331 15.3945C73.5761 15.5122 73.6974 15.7065 73.6974 15.9778V15.9779ZM77.1265 16.7261L76.9846 16.396H75.9484L75.8064 16.7261H75.25L76.3822 14.1476H76.5549L77.6827 16.7261H77.1266H77.1265ZM76.8041 15.9701L76.4663 15.1144L76.1289 15.9701H76.8041ZM79.4232 16.7261V14.1937H79.9414V15.1644H81.0617V14.1937H81.5797V16.7261H81.0617V15.6327H79.9414V16.7261H79.4232ZM83.5542 16.7261V14.1937H84.0724V15.0647H84.5328C84.8038 15.0647 85.0259 15.1422 85.1985 15.2969C85.3712 15.4516 85.4573 15.6506 85.4573 15.8935C85.4573 16.1416 85.3711 16.3423 85.1985 16.4959C85.0259 16.6495 84.8039 16.7261 84.5328 16.7261H83.5543H83.5542ZM84.0724 16.2694H84.5328C84.6554 16.2694 84.752 16.2355 84.8223 16.168C84.8928 16.0999 84.9278 16.0098 84.9278 15.8973C84.9278 15.7822 84.8928 15.6902 84.8223 15.6211C84.752 15.5519 84.6554 15.5176 84.5328 15.5176H84.0724V16.2694Z" />
</svg>