<?xml version="1.0" standalone="no"?>
<!DOCTYPE svg PUBLIC "-//W3C//DTD SVG 20010904//EN"
 "http://www.w3.org/TR/2001/REC-SVG-20010904/DTD/svg10.dtd">
<svg version="1.0" xmlns="http://www.w3.org/2000/svg"
 width="700.000000pt" height="700.000000pt" viewBox="0 0 700.000000 700.000000"
 preserveAspectRatio="xMidYMid meet">
<metadata>
Created by potrace 1.11, written by Peter Selinger 2001-2013
</metadata>
<g transform="translate(0.000000,700.000000) scale(0.100000,-0.100000)"
fill="#000000" stroke="none">
<path d="M0 3500 l0 -3500 3500 0 3500 0 0 3500 0 3500 -3500 0 -3500 0 0
-3500z m2904 667 c644 -1608 723 -1797 741 -1795 17 3 116 265 680 1798 l660
1795 888 3 888 2 -3 -42 -3 -43 -55 -2 c-105 -5 -256 -24 -338 -43 -158 -37
-251 -98 -293 -193 l-24 -52 -3 -2045 c-2 -1880 -1 -2049 14 -2098 50 -158
222 -232 602 -258 l102 -7 0 -43 0 -44 -1200 0 -1200 0 0 44 0 43 93 7 c279
20 448 79 519 182 61 88 58 -31 58 2142 l0 1983 -22 -3 c-20 -3 -110 -241
-837 -2205 l-814 -2203 -122 0 -123 0 -26 63 c-15 34 -424 1025 -910 2202
-851 2064 -883 2140 -910 2143 l-27 3 4 -1738 c3 -1725 3 -1739 25 -1849 78
-407 273 -600 697 -692 50 -11 111 -23 138 -27 l47 -6 0 -45 0 -44 -970 0
-970 0 0 43 0 44 100 17 c330 58 536 188 644 406 53 108 89 241 106 386 8 70
10 563 8 1704 l-3 1605 -28 80 c-38 108 -78 175 -149 251 -126 134 -332 224
-552 239 -127 9 -126 9 -126 55 l0 40 987 -2 986 -3 721 -1798z"/>
</g>
</svg>
