<?xml version="1.0" encoding="utf-8"?><svg viewBox="0 0 86 24" xmlns="http://www.w3.org/2000/svg" xmlns:xlink="http://www.w3.org/1999/xlink"><style>:root>svg{display:none}:root>svg:target{display:block}</style><svg viewBox="0 0 86 17" id="Group" xmlns="http://www.w3.org/2000/svg"><path d="M1.81 8.358V6.495H0v-1.21h1.81V3.432h1.358v1.853h1.79v1.21h-1.79v1.863H1.81zm4.01-6.041h4.884v.379L7.525 9.263H5.978l2.82-5.662H5.82V2.317zm13.588 2.368c0 .386-.077.73-.231 1.031-.14.295-.383.678-.727 1.147l-1.726 2.4H15.04l1.61-2.231h-.052c-.59.014-1.123-.212-1.6-.679-.477-.467-.708-1.026-.695-1.679-.014-.687.237-1.277.753-1.768.516-.491 1.114-.73 1.794-.716.695 0 1.295.239 1.8.716.506.477.758 1.07.758 1.779zm-1.742.82a1.14 1.14 0 00.332-.83c0-.33-.11-.61-.332-.837a1.092 1.092 0 00-.816-.342c-.315 0-.585.112-.81.336a1.143 1.143 0 00-.337.842c0 .33.113.607.337.832.225.224.495.337.81.337a1.1 1.1 0 00.816-.337zm7.657 1.4c0 .702-.252 1.292-.757 1.769a2.533 2.533 0 01-1.8.716c-.681.013-1.28-.225-1.795-.716-.516-.491-.766-1.084-.752-1.779 0-.26.038-.512.115-.758.113-.336.39-.81.832-1.42l1.736-2.4h1.674l-1.6 2.231h.042c.597-.014 1.133.212 1.61.679.478.467.71 1.026.695 1.679zm-1.742.843c.221-.225.332-.506.332-.842a1.135 1.135 0 00-1.147-1.169 1.1 1.1 0 00-.816.337 1.139 1.139 0 00-.332.832c0 .33.111.608.332.836.221.228.493.343.816.343a1.1 1.1 0 00.816-.337zm7.657-.842c0 .701-.252 1.29-.757 1.768a2.533 2.533 0 01-1.8.716c-.68.013-1.279-.225-1.795-.716-.515-.491-.766-1.084-.752-1.779 0-.26.038-.512.116-.758.112-.336.389-.81.831-1.42l1.736-2.4h1.674l-1.6 2.231h.042c.597-.014 1.134.212 1.61.679.478.467.71 1.026.695 1.679zm-1.741.842c.22-.225.331-.506.331-.842a1.135 1.135 0 00-1.147-1.169 1.1 1.1 0 00-.816.337 1.138 1.138 0 00-.331.832c0 .33.11.608.331.836.221.228.493.343.816.343a1.1 1.1 0 00.816-.337z"/><path fill-rule="evenodd" clip-rule="evenodd" d="M34.24 0h51.643v12.04H34.24V0zm5.075 8.053h2.589v1.21l-5.126.01V8.97l2.484-2.695c.35-.386.602-.71.753-.973.15-.263.226-.521.226-.774 0-.302-.088-.547-.263-.737-.176-.19-.41-.284-.706-.284-.294 0-.531.098-.71.295-.179.196-.268.452-.268.768 0 .105.017.274.052.505h-1.43a2.187 2.187 0 01-.075-.59c0-.617.23-1.153.69-1.61.46-.455 1.047-.684 1.763-.684.694 0 1.27.213 1.726.637.456.425.684.953.684 1.584 0 .47-.126.909-.379 1.316-.267.42-.639.88-1.116 1.379l-.894.947zm9.062-1.126v1.2h-.884v1.136h-1.421V8.126h-3.453v-.378l2.148-5.431h1.463l-1.842 4.61h1.684V4.979h1.42v1.948h.885zm.737-1.19c0-1.066.235-1.922.705-2.568.47-.652 1.154-.979 2.052-.979.898 0 1.579.327 2.042.98.47.645.705 1.5.705 2.567 0 1.074-.238 1.951-.716 2.632-.477.68-1.154 1.02-2.031 1.02-.884 0-1.565-.34-2.042-1.02-.477-.681-.715-1.558-.715-2.632zm4.041.01c0-1.494-.428-2.24-1.284-2.24-.863 0-1.294.746-1.294 2.24 0 1.552.431 2.327 1.294 2.327.856 0 1.284-.775 1.284-2.326zm8.01 2.306h2.589v1.21l-5.126.01V8.97l2.484-2.695c.35-.386.602-.71.753-.973.15-.263.226-.521.226-.774 0-.302-.088-.547-.263-.737-.176-.19-.41-.284-.706-.284-.294 0-.53.098-.71.295-.179.196-.268.452-.268.768 0 .105.017.274.052.505h-1.431a2.187 2.187 0 01-.074-.59c0-.617.23-1.153.69-1.61.46-.455 1.047-.684 1.763-.684.694 0 1.27.213 1.726.637.456.425.684.953.684 1.584 0 .47-.126.909-.379 1.316-.267.42-.639.88-1.116 1.379l-.894.947zm8.83-.642c0 .596-.242 1.075-.726 1.437-.484.36-1.109.542-1.874.542-.771 0-1.4-.181-1.883-.542-.485-.362-.727-.84-.727-1.437 0-.8.456-1.382 1.369-1.747-.702-.407-1.053-.951-1.053-1.632 0-.575.214-1.024.642-1.347.435-.33.986-.495 1.652-.495.66 0 1.208.165 1.642.495.435.33.653.779.653 1.347 0 .688-.347 1.232-1.042 1.632.898.371 1.347.954 1.347 1.747zm-3.568-3.316c0 .204.074.376.221.516.148.14.397.291.747.453.352-.162.6-.312.748-.453a.697.697 0 00.22-.526.645.645 0 00-.273-.542c-.182-.137-.414-.205-.695-.205-.287 0-.52.068-.7.205a.66.66 0 00-.268.552zm2.158 3.263c0-.26-.093-.47-.28-.631-.185-.162-.489-.316-.91-.464-.42.155-.724.315-.91.48a.79.79 0 00-.279.615.76.76 0 00.31.637c.207.158.5.237.88.237.378 0 .671-.08.878-.237a.76.76 0 00.31-.637zm7.862.695h2.589v1.21l-5.126.01v-.305l2.484-2.694c.35-.386.602-.71.753-.973a1.55 1.55 0 00.226-.774c0-.302-.088-.548-.263-.737-.175-.19-.41-.284-.705-.284s-.532.098-.71.295c-.18.196-.269.452-.269.768 0 .105.017.274.052.505h-1.43a2.187 2.187 0 01-.075-.59c0-.617.23-1.153.69-1.61.46-.456 1.047-.684 1.763-.684.695 0 1.27.213 1.726.637.456.425.684.953.684 1.584 0 .47-.126.909-.379 1.316-.267.42-.638.88-1.116 1.378l-.894.948zm5.925-5.736h.474v6.946h-1.42V4.001l-1.317.42-.336-1.252 2.6-.852z"/><path d="M66.249 16.726h-.626l-1.085-1.32v1.32h-.519v-2.532h.519v1.174l.967-1.174h.617l-.97 1.193 1.097 1.34zm3.372 0l-.142-.33h-1.037l-.142.33h-.556l1.132-2.578h.173l1.128 2.578h-.556zm-.323-.756l-.338-.856-.337.856h.675zm4.4.008c0 .238-.088.43-.263.575-.175.146-.409.219-.7.219a1.15 1.15 0 01-.597-.155 1.021 1.021 0 01-.401-.432l.36-.26c.167.245.378.367.634.367.133 0 .242-.03.328-.092a.29.29 0 00.128-.25.27.27 0 00-.105-.223.487.487 0 00-.305-.083h-.334v-.426h.295a.358.358 0 00.248-.08.27.27 0 00.09-.212.273.273 0 00-.094-.218.391.391 0 00-.263-.081c-.222 0-.398.11-.526.33l-.36-.257a.966.966 0 01.913-.552c.258 0 .463.066.614.197a.68.68 0 01.227.54.629.629 0 01-.254.51.602.602 0 01.364.583zm3.428.748l-.141-.33h-1.037l-.142.33h-.556l1.132-2.578h.173l1.128 2.578h-.556zm-.322-.756l-.338-.856-.337.856h.675zm2.62.756v-2.532h.517v.97h1.12v-.97h.519v2.532h-.518v-1.093h-1.12v1.093h-.519zm4.13 0v-2.532h.518v.87h.46c.272 0 .494.078.666.233a.765.765 0 01.26.596.768.768 0 01-.26.603c-.172.154-.394.23-.665.23h-.979zm.518-.457h.46a.4.4 0 00.29-.101.359.359 0 00.106-.27.369.369 0 00-.106-.277.395.395 0 00-.29-.103h-.46v.751z"/></svg><svg viewBox="0 0 24 24" id="acc-icon" xmlns="http://www.w3.org/2000/svg"><path fill-rule="evenodd" clip-rule="evenodd" d="M12 2C6.48 2 2 6.48 2 12s4.48 10 10 10 10-4.48 10-10S17.52 2 12 2zM7.07 18.28c.43-.9 3.05-1.78 4.93-1.78s4.51.88 4.93 1.78A7.893 7.893 0 0112 20c-1.86 0-3.57-.64-4.93-1.72zm11.29-1.45c-1.43-1.74-4.9-2.33-6.36-2.33s-4.93.59-6.36 2.33A7.95 7.95 0 014 12c0-4.41 3.59-8 8-8s8 3.59 8 8c0 1.82-.62 3.49-1.64 4.83zM12 6c-1.94 0-3.5 1.56-3.5 3.5S10.06 13 12 13s3.5-1.56 3.5-3.5S13.94 6 12 6zm0 5c-.83 0-1.5-.67-1.5-1.5S11.17 8 12 8s1.5.67 1.5 1.5S12.83 11 12 11z"/><mask id="ba" maskUnits="userSpaceOnUse" x="2" y="2" width="20" height="20"><path fill-rule="evenodd" clip-rule="evenodd" d="M12 2C6.48 2 2 6.48 2 12s4.48 10 10 10 10-4.48 10-10S17.52 2 12 2zM7.07 18.28c.43-.9 3.05-1.78 4.93-1.78s4.51.88 4.93 1.78A7.893 7.893 0 0112 20c-1.86 0-3.57-.64-4.93-1.72zm11.29-1.45c-1.43-1.74-4.9-2.33-6.36-2.33s-4.93.59-6.36 2.33A7.95 7.95 0 014 12c0-4.41 3.59-8 8-8s8 3.59 8 8c0 1.82-.62 3.49-1.64 4.83zM12 6c-1.94 0-3.5 1.56-3.5 3.5S10.06 13 12 13s3.5-1.56 3.5-3.5S13.94 6 12 6zm0 5c-.83 0-1.5-.67-1.5-1.5S11.17 8 12 8s1.5.67 1.5 1.5S12.83 11 12 11z"/></mask></svg><svg viewBox="0 0 24 16" id="arrow" xmlns="http://www.w3.org/2000/svg"><path d="M16 0l-1.41 1.41L20.17 7H0v2h20.17l-5.59 5.58L16 16l8-8-8-8z"/></svg><svg viewBox="0 0 24 24" id="inst" xmlns="http://www.w3.org/2000/svg"><path d="M7.8 2h8.4A5.8 5.8 0 0122 7.8v8.4a5.8 5.8 0 01-5.8 5.8H7.8A5.8 5.8 0 012 16.2V7.8A5.8 5.8 0 017.8 2zm-.2 2A3.6 3.6 0 004 7.6v8.8A3.6 3.6 0 007.6 20h8.8a3.6 3.6 0 003.6-3.6V7.6A3.6 3.6 0 0016.4 4H7.6zm9.65 1.5a1.25 1.25 0 110 2.5 1.25 1.25 0 010-2.5zM12 7a5 5 0 110 10 5 5 0 010-10zm0 2a3 3 0 100 6 3 3 0 000-6z"/></svg><svg viewBox="0 0 24 24" id="twitter" xmlns="http://www.w3.org/2000/svg"><path d="M22.46 6.012a8.58 8.58 0 01-2.466.676 4.305 4.305 0 001.887-2.374 8.591 8.591 0 01-2.725 1.041 4.292 4.292 0 00-7.313 3.914 12.184 12.184 0 01-8.846-4.483 4.271 4.271 0 00-.581 2.157 4.29 4.29 0 001.91 3.572 4.276 4.276 0 01-1.945-.537v.054c0 2.08 1.48 3.814 3.443 4.209a4.296 4.296 0 01-1.939.073 4.296 4.296 0 004.01 2.98 8.61 8.61 0 01-5.33 1.838c-.347 0-.688-.02-1.024-.06A12.147 12.147 0 008.12 21c7.893 0 12.21-6.54 12.21-12.21 0-.187-.004-.372-.012-.556a8.719 8.719 0 002.141-2.222z"/></svg></svg>